<svg
  xmlns="http://www.w3.org/2000/svg"
  width="30"
  height="30"
  viewBox="0 0 37.5 37.5"
  preserveAspectRatio="xMidYMid meet"
>
  <defs>
    <clipPath id="clip1">
      <path d="M2.582031 7.078125 L34.832031 7.078125 L34.832031 30.328125 L2.582031 30.328125 Z"/>
    </clipPath>
  </defs>

  <g clip-path="url(#clip1)">
    <!-- White background -->
    <path
      fill="#eeeeee"
      d="M31.238281 7.078125 L6.175781 7.078125 C4.195312 7.078125 2.59375 8.679688 2.59375 10.65625 L2.59375 26.75 C2.59375 28.726562 4.195312 30.328125 6.175781 30.328125 L31.238281 30.328125 C33.214844 30.328125 34.816406 28.726562 34.816406 26.75 L34.816406 10.65625 C34.816406 8.679688 33.214844 7.078125 31.238281 7.078125 Z"
    />
    <!-- Red shape -->
    <path
      fill="#ce1124"
      d="M21.390625 7.078125 L16.019531 7.078125 L16.019531 16.019531 L2.59375 16.019531 L2.59375 21.386719 L16.019531 21.386719 L16.019531 30.328125 L21.390625 30.328125 L21.390625 21.386719 L34.816406 21.386719 L34.816406 16.019531 L21.390625 16.019531 Z"
    />
  </g>
</svg>
