<svg
  xmlns="http://www.w3.org/2000/svg"
  width="30"
  height="30"
  viewBox="0 0 37.5 37.5"
  preserveAspectRatio="xMidYMid meet"
>
  <defs>
    <clipPath id="red-clip">
      <path d="M2.582031 23 L34.832031 23 L34.832031 30.328125 L2.582031 30.328125 Z" />
    </clipPath>
    <clipPath id="blue-clip">
      <path d="M2.582031 14 L34.832031 14 L34.832031 24 L2.582031 24 Z" />
    </clipPath>
    <clipPath id="white-clip">
      <path d="M2.582031 7.078125 L34.832031 7.078125 L34.832031 15 L2.582031 15 Z" />
    </clipPath>
  </defs>

  <!-- Red stripe -->
  <g clip-path="url(#red-clip)">
    <path
      fill="#ce2028"
      d="M34.816406 26.75 C34.816406 28.726562 33.214844 30.328125 31.238281 30.328125 L6.175781 30.328125 C4.195312 30.328125 2.59375 28.726562 2.59375 26.75 L2.59375 23.175781 L34.816406 23.175781 Z"
    />
  </g>

  <!-- Blue stripe -->
  <g clip-path="url(#blue-clip)">
    <path
      fill="#22408c"
      d="M2.59375 14.234375 L34.816406 14.234375 L34.816406 23.175781 L2.59375 23.175781 Z"
    />
  </g>

  <!-- White stripe -->
  <g clip-path="url(#white-clip)">
    <path
      fill="#eeeeee"
      d="M31.238281 7.078125 L6.175781 7.078125 C4.195312 7.078125 2.59375 8.679688 2.59375 10.65625 L2.59375 14.234375 L34.816406 14.234375 L34.816406 10.65625 C34.816406 8.679688 33.214844 7.078125 31.238281 7.078125 Z"
    />
  </g>
</svg>
