<svg
    xmlns="http://www.w3.org/2000/svg"
    width="30"
    height="30"
    viewBox="0 0 37.5 37.499999"
    preserveAspectRatio="xMidYMid meet"
    version="1.0"
>
  <defs>
    <clipPath id="c52326898a">
      <path d="M 2.582031 7.078125 L 34.832031 7.078125 L 34.832031 15 L 2.582031 15 Z" />
    </clipPath>
    <clipPath id="42922f3208">
      <path d="M 2.582031 23 L 34.832031 23 L 34.832031 30.328125 L 2.582031 30.328125 Z" />
    </clipPath>
    <clipPath id="e646d55be2">
      <path d="M 2.582031 14 L 34.832031 14 L 34.832031 24 L 2.582031 24 Z" />
    </clipPath>
    <clipPath id="943a090765">
      <path d="M 2.582031 15 L 34.832031 15 L 34.832031 22 L 2.582031 22 Z" />
    </clipPath>
  </defs>

  <g clip-path="url(#c52326898a)">
    <path
      fill="#0099b5"
      d="M 2.59375 10.65625 L 2.59375 14.234375 L 34.816406 14.234375 L 34.816406 10.65625 C 34.816406 8.679688 33.214844 7.078125 31.238281 7.078125 L 6.175781 7.078125 C 4.195312 7.078125 2.59375 8.679688 2.59375 10.65625 Z"
    />
  </g>

  <g clip-path="url(#42922f3208)">
    <path
      fill="#1eb53a"
      d="M 34.816406 26.75 L 34.816406 23.175781 L 2.59375 23.175781 L 2.59375 26.75 C 2.59375 28.726562 4.195312 30.328125 6.175781 30.328125 L 31.238281 30.328125 C 33.214844 30.328125 34.816406 28.726562 34.816406 26.75 Z"
    />
  </g>

  <g clip-path="url(#e646d55be2)">
    <path
      fill="#ce1126"
      d="M 2.59375 14.234375 L 34.816406 14.234375 L 34.816406 15.574219 L 2.59375 15.574219 Z M 2.59375 21.832031 L 34.816406 21.832031 L 34.816406 23.175781 L 2.59375 23.175781 Z"
    />
  </g>

  <g clip-path="url(#943a090765)">
    <path
      fill="#eeeeee"
      d="M 2.59375 18.703125 L 2.59375 21.832031 L 34.816406 21.832031 L 34.816406 15.574219 L 2.59375 15.574219 Z"
    />
  </g>

  <path
    fill="#ffffff"
    d="M 6.351562 10.796875 C 6.351562 9.417969 7.359375 8.269531 8.679688 8.046875 C 8.53125 8.023438 8.375 8.007812 8.214844 8.007812 C 6.671875 8.007812 5.421875 9.257812 5.421875 10.796875 C 5.421875 12.339844 6.671875 13.589844 8.214844 13.589844 C 8.375 13.589844 8.53125 13.574219 8.679688 13.550781 C 7.359375 13.328125 6.351562 12.179688 6.351562 10.796875 Z"
  />
</svg>
